# xmcd
#
# Track frame offsets: 
#        150
#        20247
#        35917
#        56401
#        81110
#        92743
#        109248
#        124444
#        140921
#        153250
#        171002
#        200256
#
# Disc length: 2936 seconds
#
# Revision: 0
# Processed by: cddbd v1.5.2PL0 Copyright (c) Steve Scherf et al.
# Submitted via: ExactAudioCopyFreeDBPlugin 1.0
#
DISCID=ab0b760c
DTITLE=Heroes of the Dance Floor - Shelter
DYEAR=2014
DGENRE=Blues Soul Old Jazz
TTITLE0=I Could Never Get Involved
TTITLE1=Nobody Loves You
TTITLE2=Murky Water
TTITLE3=St. James Infirmary
TTITLE4=No More Words
TTITLE5=Dew Of The Morning
TTITLE6=Into The Light
TTITLE7=The Glow For You
TTITLE8=Oh Mama
TTITLE9=Frieght train correct
TTITLE10=The help of a hundred hands correct
TTITLE11=Wee Betide Me - Fusion Mix
EXTD=
EXTT0=
EXTT1=
EXTT2=
EXTT3=
EXTT4=
EXTT5=
EXTT6=
EXTT7=
EXTT8=
EXTT9=
EXTT10=
EXTT11=
PLAYORDER=
